<svg xmlns="http://www.w3.org/2000/svg" xmlns:xlink="http://www.w3.org/1999/xlink" width="500" zoomAndPan="magnify" viewBox="0 0 375 374.999991" height="500" preserveAspectRatio="xMidYMid meet" version="1.0"><defs><clipPath id="9089beef33"><path d="M 11.433594 0 L 363.566406 0 L 363.566406 375 L 11.433594 375 Z M 11.433594 0 " clip-rule="nonzero"/></clipPath><clipPath id="e4b6f977a6"><path d="M 187.5 0 L 363.566406 375 L 11.433594 375 Z M 187.5 0 " clip-rule="nonzero"/></clipPath><clipPath id="5f9c803624"><path d="M 94.535156 133.421875 L 280.464844 133.421875 L 280.464844 331.699219 L 94.535156 331.699219 Z M 94.535156 133.421875 " clip-rule="nonzero"/></clipPath><clipPath id="8abb365aa8"><path d="M 187.5 133.421875 L 280.464844 331.425781 L 94.535156 331.425781 Z M 187.5 133.421875 " clip-rule="nonzero"/></clipPath><clipPath id="cfb82d45a8"><path d="M 146.472656 246.898438 L 228.527344 246.898438 L 228.527344 334.40625 L 146.472656 334.40625 Z M 146.472656 246.898438 " clip-rule="nonzero"/></clipPath><clipPath id="00aee5ea01"><path d="M 187.5 246.898438 L 228.527344 334.285156 L 146.472656 334.285156 Z M 187.5 246.898438 " clip-rule="nonzero"/></clipPath></defs><g clip-path="url(#9089beef33)"><g clip-path="url(#e4b6f977a6)"><path fill="#000000" d="M 11.433594 0 L 363.566406 0 L 363.566406 375.519531 L 11.433594 375.519531 Z M 11.433594 0 " fill-opacity="1" fill-rule="nonzero"/></g></g><g clip-path="url(#5f9c803624)"><g clip-path="url(#8abb365aa8)"><path fill="#89563e" d="M 94.535156 133.421875 L 280.464844 133.421875 L 280.464844 331.699219 L 94.535156 331.699219 Z M 94.535156 133.421875 " fill-opacity="1" fill-rule="nonzero"/></g></g><g clip-path="url(#cfb82d45a8)"><g clip-path="url(#00aee5ea01)"><path fill="#000000" d="M 146.472656 246.898438 L 228.527344 246.898438 L 228.527344 334.40625 L 146.472656 334.40625 Z M 146.472656 246.898438 " fill-opacity="1" fill-rule="nonzero"/></g></g></svg>