<svg xmlns="http://www.w3.org/2000/svg" xmlns:xlink="http://www.w3.org/1999/xlink" width="400" zoomAndPan="magnify" viewBox="0 0 300 119.999999" height="160" preserveAspectRatio="xMidYMid meet" version="1.0"><defs><g/><clipPath id="550f3a538f"><path d="M 181.96875 19.210938 L 221.558594 19.210938 L 221.558594 61.429688 L 181.96875 61.429688 Z M 181.96875 19.210938 " clip-rule="nonzero"/></clipPath><clipPath id="dce014d4c3"><path d="M 201.761719 19.210938 L 221.558594 61.371094 L 181.96875 61.371094 Z M 201.761719 19.210938 " clip-rule="nonzero"/></clipPath><clipPath id="1404111983"><path d="M 191.3125 34.210938 L 212.214844 34.210938 L 212.214844 56.503906 L 191.3125 56.503906 Z M 191.3125 34.210938 " clip-rule="nonzero"/></clipPath><clipPath id="04c1d52d86"><path d="M 201.761719 34.210938 L 212.214844 56.472656 L 191.3125 56.472656 Z M 201.761719 34.210938 " clip-rule="nonzero"/></clipPath><clipPath id="cb1ce8b536"><path d="M 197.152344 46.96875 L 206.375 46.96875 L 206.375 56.808594 L 197.152344 56.808594 Z M 197.152344 46.96875 " clip-rule="nonzero"/></clipPath><clipPath id="20de0e6af3"><path d="M 201.761719 46.96875 L 206.375 56.792969 L 197.152344 56.792969 Z M 201.761719 46.96875 " clip-rule="nonzero"/></clipPath></defs><g clip-path="url(#550f3a538f)"><g clip-path="url(#dce014d4c3)"><path fill="#000000" d="M 181.96875 19.210938 L 221.558594 19.210938 L 221.558594 61.429688 L 181.96875 61.429688 Z M 181.96875 19.210938 " fill-opacity="1" fill-rule="nonzero"/></g></g><g clip-path="url(#1404111983)"><g clip-path="url(#04c1d52d86)"><path fill="#89563e" d="M 191.3125 34.210938 L 212.214844 34.210938 L 212.214844 56.503906 L 191.3125 56.503906 Z M 191.3125 34.210938 " fill-opacity="1" fill-rule="nonzero"/></g></g><g clip-path="url(#cb1ce8b536)"><g clip-path="url(#20de0e6af3)"><path fill="#000000" d="M 197.152344 46.96875 L 206.375 46.96875 L 206.375 56.808594 L 197.152344 56.808594 Z M 197.152344 46.96875 " fill-opacity="1" fill-rule="nonzero"/></g></g><g fill="#000000" fill-opacity="1"><g transform="translate(56.421121, 60.847247)"><g><path d="M 8.453125 -39.8125 L 8.453125 -22.75 L 25.390625 -39.8125 L 31.359375 -39.8125 L 12.671875 -21.28125 L 32 0 L 25.875 0 L 9.5625 -18.265625 L 8.453125 -17.15625 L 8.453125 0 L 4.015625 0 L 4.015625 -39.8125 Z M 8.453125 -39.8125 "/></g></g></g><g fill="#000000" fill-opacity="1"><g transform="translate(88.676173, 60.847247)"><g><path d="M 7.921875 -24.8125 L 7.921875 -10.609375 C 7.921875 -8.003906 8.320312 -6.117188 9.125 -4.953125 C 9.9375 -3.796875 11.398438 -3.21875 13.515625 -3.21875 C 15.585938 -3.21875 17.035156 -3.789062 17.859375 -4.9375 C 18.691406 -6.082031 19.109375 -7.90625 19.109375 -10.40625 L 19.109375 -24.8125 L 23.34375 -24.8125 L 23.34375 -10.25 C 23.34375 -6.65625 22.519531 -3.929688 20.875 -2.078125 C 19.238281 -0.234375 16.785156 0.6875 13.515625 0.6875 C 10.242188 0.6875 7.789062 -0.242188 6.15625 -2.109375 C 4.519531 -3.972656 3.703125 -6.6875 3.703125 -10.25 L 3.703125 -24.8125 Z M 7.921875 -24.8125 "/></g></g></g><g fill="#000000" fill-opacity="1"><g transform="translate(115.704956, 60.847247)"><g><path d="M 21.171875 -21.375 C 21.910156 -22.6875 22.9375 -23.703125 24.25 -24.421875 C 25.570312 -25.140625 27.023438 -25.5 28.609375 -25.5 C 31.210938 -25.5 33.179688 -24.617188 34.515625 -22.859375 C 35.859375 -21.097656 36.53125 -18.597656 36.53125 -15.359375 L 36.53125 0 L 32.3125 0 L 32.3125 -14.734375 C 32.3125 -17.234375 31.941406 -19 31.203125 -20.03125 C 30.460938 -21.070312 29.316406 -21.59375 27.765625 -21.59375 C 25.941406 -21.59375 24.585938 -20.921875 23.703125 -19.578125 C 22.828125 -18.242188 22.390625 -16.1875 22.390625 -13.40625 L 22.390625 0 L 18.15625 0 L 18.15625 -14.3125 C 18.15625 -16.84375 17.773438 -18.6875 17.015625 -19.84375 C 16.265625 -21.007812 15.171875 -21.59375 13.734375 -21.59375 C 11.929688 -21.59375 10.5625 -20.914062 9.625 -19.5625 C 8.695312 -18.207031 8.234375 -16.050781 8.234375 -13.09375 L 8.234375 0 L 4.015625 0 L 4.015625 -24.8125 L 8.234375 -24.8125 L 8.234375 -22.125 L 8.34375 -22.125 C 9.007812 -23.144531 9.851562 -23.960938 10.875 -24.578125 C 11.894531 -25.191406 13.039062 -25.5 14.3125 -25.5 C 15.75 -25.5 17.082031 -25.140625 18.3125 -24.421875 C 19.550781 -23.703125 20.503906 -22.6875 21.171875 -21.375 Z M 21.171875 -21.375 "/></g></g></g><g fill="#000000" fill-opacity="1"><g transform="translate(156.24813, 60.847247)"><g><path d="M 14.046875 -19.0625 C 13.660156 -19.875 13.164062 -20.5 12.5625 -20.9375 C 11.96875 -21.375 11.335938 -21.59375 10.671875 -21.59375 C 9.890625 -21.59375 9.179688 -21.316406 8.546875 -20.765625 C 7.921875 -20.222656 7.609375 -19.582031 7.609375 -18.84375 C 7.609375 -17.40625 8.988281 -16.179688 11.75 -15.171875 C 14.507812 -14.171875 16.425781 -13.070312 17.5 -11.875 C 18.570312 -10.675781 19.109375 -9.179688 19.109375 -7.390625 C 19.109375 -6.015625 18.789062 -4.726562 18.15625 -3.53125 C 17.53125 -2.34375 16.554688 -1.34375 15.234375 -0.53125 C 13.910156 0.28125 12.40625 0.6875 10.71875 0.6875 C 8.675781 0.6875 6.878906 0.140625 5.328125 -0.953125 C 3.785156 -2.046875 2.660156 -3.59375 1.953125 -5.59375 L 5.703125 -7.1875 C 6.335938 -5.707031 7.050781 -4.675781 7.84375 -4.09375 C 8.632812 -3.507812 9.609375 -3.21875 10.765625 -3.21875 C 11.960938 -3.21875 12.929688 -3.578125 13.671875 -4.296875 C 14.410156 -5.023438 14.78125 -5.929688 14.78125 -7.015625 C 14.78125 -7.929688 14.445312 -8.734375 13.78125 -9.421875 C 13.113281 -10.109375 11.890625 -10.800781 10.109375 -11.5 C 8.328125 -12.207031 6.945312 -12.914062 5.96875 -13.625 C 4.414062 -14.75 3.625 -16.367188 3.59375 -18.484375 C 3.59375 -20.453125 4.296875 -22.113281 5.703125 -23.46875 C 7.109375 -24.820312 8.867188 -25.5 10.984375 -25.5 C 12.316406 -25.5 13.597656 -25.078125 14.828125 -24.234375 C 16.066406 -23.390625 16.984375 -22.28125 17.578125 -20.90625 Z M 14.046875 -19.0625 "/></g></g></g><g fill="#000000" fill-opacity="1"><g transform="translate(223.959189, 60.765167)"><g><path d="M 8.015625 -42.90625 L 8.015625 0 L 3.84375 0 L 3.84375 -42.90625 Z M 8.015625 -42.90625 "/></g></g></g><g fill="#000000" fill-opacity="1"><g transform="translate(77.859373, 99.719065)"><g><path d="M 5.40625 -19.90625 C 7.5 -19.90625 9.109375 -19.441406 10.234375 -18.515625 C 11.359375 -17.585938 11.921875 -16.253906 11.921875 -14.515625 C 11.921875 -13.703125 11.765625 -12.96875 11.453125 -12.3125 C 11.148438 -11.65625 10.65625 -11.097656 9.96875 -10.640625 C 11.082031 -10.359375 11.988281 -9.742188 12.6875 -8.796875 C 13.394531 -7.859375 13.75 -6.765625 13.75 -5.515625 C 13.75 -3.785156 13.128906 -2.429688 11.890625 -1.453125 C 10.648438 -0.484375 8.9375 0 6.75 0 L 2 0 L 2 -19.90625 Z M 4.21875 -11.140625 L 5.25 -11.140625 C 6.53125 -11.140625 7.46875 -11.269531 8.0625 -11.53125 C 8.65625 -11.789062 9.078125 -12.160156 9.328125 -12.640625 C 9.585938 -13.128906 9.71875 -13.753906 9.71875 -14.515625 C 9.71875 -15.691406 9.410156 -16.539062 8.796875 -17.0625 C 8.191406 -17.582031 7 -17.84375 5.21875 -17.84375 L 4.21875 -17.84375 Z M 6.578125 -2.0625 C 8.210938 -2.0625 9.445312 -2.363281 10.28125 -2.96875 C 11.113281 -3.570312 11.53125 -4.484375 11.53125 -5.703125 C 11.53125 -6.859375 11.097656 -7.734375 10.234375 -8.328125 C 9.378906 -8.929688 8.0625 -9.234375 6.28125 -9.234375 L 4.21875 -9.234375 L 4.21875 -2.0625 Z M 6.578125 -2.0625 "/></g></g></g><g fill="#000000" fill-opacity="1"><g transform="translate(92.849264, 99.719065)"><g><path d="M 4.171875 -19.90625 L 4.171875 -7.625 C 4.171875 -5.96875 4.351562 -4.785156 4.71875 -4.078125 C 5.09375 -3.378906 5.6875 -2.8125 6.5 -2.375 C 7.320312 -1.9375 8.171875 -1.71875 9.046875 -1.71875 C 9.878906 -1.71875 10.660156 -1.898438 11.390625 -2.265625 C 12.117188 -2.640625 12.65625 -3.050781 13 -3.5 C 13.34375 -3.945312 13.582031 -4.457031 13.71875 -5.03125 C 13.863281 -5.613281 13.9375 -6.492188 13.9375 -7.671875 L 13.9375 -19.90625 L 16.15625 -19.90625 L 16.15625 -7.203125 C 16.15625 -5.898438 16.015625 -4.847656 15.734375 -4.046875 C 15.460938 -3.242188 14.984375 -2.492188 14.296875 -1.796875 C 13.617188 -1.109375 12.828125 -0.578125 11.921875 -0.203125 C 11.015625 0.160156 10.054688 0.34375 9.046875 0.34375 C 7.796875 0.34375 6.617188 0.0507812 5.515625 -0.53125 C 4.421875 -1.125 3.550781 -1.910156 2.90625 -2.890625 C 2.269531 -3.878906 1.953125 -5.332031 1.953125 -7.25 L 1.953125 -19.90625 Z M 4.171875 -19.90625 "/></g></g></g><g fill="#000000" fill-opacity="1"><g transform="translate(110.926854, 99.719065)"><g><path d="M 2.140625 -20.75 L 17.65625 -4.484375 L 17.65625 -19.90625 L 19.875 -19.90625 L 19.875 0.890625 L 4.359375 -15.328125 L 4.359375 0 L 2.140625 0 Z M 2.140625 -20.75 "/></g></g></g><g fill="#000000" fill-opacity="1"><g transform="translate(132.936652, 99.719065)"><g><path d="M 18.03125 -14.4375 C 17.1875 -15.632812 16.195312 -16.554688 15.0625 -17.203125 C 13.9375 -17.859375 12.644531 -18.1875 11.1875 -18.1875 C 9.75 -18.1875 8.398438 -17.804688 7.140625 -17.046875 C 5.878906 -16.285156 4.882812 -15.269531 4.15625 -14 C 3.425781 -12.726562 3.0625 -11.351562 3.0625 -9.875 C 3.0625 -8.394531 3.453125 -7.019531 4.234375 -5.75 C 5.015625 -4.488281 6.019531 -3.5 7.25 -2.78125 C 8.488281 -2.070312 9.75 -1.71875 11.03125 -1.71875 C 12.226562 -1.71875 13.367188 -1.988281 14.453125 -2.53125 C 15.546875 -3.082031 16.429688 -3.832031 17.109375 -4.78125 C 17.785156 -5.726562 18.125 -6.78125 18.125 -7.9375 L 12.21875 -7.9375 L 12.21875 -10 L 20.5 -10 L 20.5 -8.875 C 20.5 -7.570312 20.28125 -6.363281 19.84375 -5.25 C 19.40625 -4.144531 18.726562 -3.171875 17.8125 -2.328125 C 16.894531 -1.484375 15.851562 -0.828125 14.6875 -0.359375 C 13.53125 0.109375 12.328125 0.34375 11.078125 0.34375 C 9.265625 0.34375 7.566406 -0.113281 5.984375 -1.03125 C 4.398438 -1.945312 3.144531 -3.195312 2.21875 -4.78125 C 1.300781 -6.375 0.84375 -8.078125 0.84375 -9.890625 C 0.84375 -11.742188 1.3125 -13.46875 2.25 -15.0625 C 3.195312 -16.664062 4.472656 -17.925781 6.078125 -18.84375 C 7.691406 -19.769531 9.40625 -20.234375 11.21875 -20.234375 C 12.957031 -20.234375 14.523438 -19.863281 15.921875 -19.125 C 17.328125 -18.394531 18.566406 -17.332031 19.640625 -15.9375 Z M 18.03125 -14.4375 "/></g></g></g><g fill="#000000" fill-opacity="1"><g transform="translate(154.57698, 99.719065)"><g><path d="M 9.34375 -20.84375 L 18.28125 0 L 15.828125 0 L 13.484375 -5.640625 L 4.984375 -5.640625 L 2.59375 0 L 0.15625 0 Z M 5.890625 -7.703125 L 12.609375 -7.703125 L 9.296875 -15.671875 Z M 3.59375 -19.90625 Z M 3.59375 -19.90625 "/></g></g></g><g fill="#000000" fill-opacity="1"><g transform="translate(173.02404, 99.719065)"><g><path d="M 4.21875 -19.90625 L 4.21875 -2.0625 L 9.71875 -2.0625 L 9.71875 0 L 2 0 L 2 -19.90625 Z M 4.21875 -19.90625 "/></g></g></g><g fill="#000000" fill-opacity="1"><g transform="translate(182.920533, 99.719065)"><g><path d="M 1 -9.921875 C 1 -11.753906 1.460938 -13.460938 2.390625 -15.046875 C 3.316406 -16.628906 4.578125 -17.890625 6.171875 -18.828125 C 7.773438 -19.765625 9.507812 -20.234375 11.375 -20.234375 C 13.21875 -20.234375 14.9375 -19.773438 16.53125 -18.859375 C 18.125 -17.953125 19.390625 -16.695312 20.328125 -15.09375 C 21.273438 -13.488281 21.75 -11.765625 21.75 -9.921875 C 21.75 -8.085938 21.285156 -6.378906 20.359375 -4.796875 C 19.429688 -3.210938 18.171875 -1.957031 16.578125 -1.03125 C 14.992188 -0.113281 13.257812 0.34375 11.375 0.34375 C 9.53125 0.34375 7.804688 -0.113281 6.203125 -1.03125 C 4.597656 -1.945312 3.328125 -3.195312 2.390625 -4.78125 C 1.460938 -6.375 1 -8.085938 1 -9.921875 Z M 11.34375 -18.1875 C 9.863281 -18.1875 8.5 -17.804688 7.25 -17.046875 C 6.007812 -16.285156 5.023438 -15.273438 4.296875 -14.015625 C 3.578125 -12.765625 3.21875 -11.410156 3.21875 -9.953125 C 3.21875 -8.492188 3.585938 -7.128906 4.328125 -5.859375 C 5.066406 -4.585938 6.0625 -3.578125 7.3125 -2.828125 C 8.570312 -2.085938 9.925781 -1.71875 11.375 -1.71875 C 12.832031 -1.71875 14.195312 -2.09375 15.46875 -2.84375 C 16.75 -3.601562 17.742188 -4.613281 18.453125 -5.875 C 19.171875 -7.144531 19.53125 -8.503906 19.53125 -9.953125 C 19.53125 -11.429688 19.164062 -12.804688 18.4375 -14.078125 C 17.707031 -15.359375 16.710938 -16.363281 15.453125 -17.09375 C 14.191406 -17.820312 12.820312 -18.1875 11.34375 -18.1875 Z M 11.34375 -18.1875 "/></g></g></g><g fill="#000000" fill-opacity="1"><g transform="translate(205.669272, 99.719065)"><g><path d="M 2.5625 -19.90625 L 8.234375 -4.71875 L 13.90625 -19.90625 L 16.3125 -19.90625 L 8.234375 1.1875 L 0.15625 -19.90625 Z M 2.765625 0 Z M 2.765625 0 "/></g></g></g></svg>